# xmcd
#
# Track frame offsets:
#	150
#	26870
#	57610
#	93508
#	109021
#	139227
#	165085
#	189476
#	219546
#	252433
#	280165
#	297367
#	325441
#
# Disc length: 4715 seconds
#
# Revision: 1
# Processed by: cddbd v1.5.2PL0 Copyright (c) Steve Scherf et al.
# Submitted via: audiograbber 1.83.01
#
DISCID=c912690d
DTITLE=Cafe del Mar  - Cafe del Mar 3 
DYEAR=1900
DGENRE=Chillout
TTITLE0=03. Pat Metheny - Sueno Con Mexico
TTITLE1=04. Afterlife - Bluebar
TTITLE2=05. Miro - Emotions Of Paradise
TTITLE3=06. Nightmares On Wax - Nights Interlude
TTITLE4=07. Eighth Wave - Panama Bazaar
TTITLE5=08. Pressure Drop - Dusk
TTITLE6=09. Alex Neri - Asia
TTITLE7=10. Moodswings - Redemption Song
TTITLE8=11. Fazed Idjuts Featuring Sally Rodgers - Dust Of Life
TTITLE9=12. Beat Foundation - My Freedom
TTITLE10=13. Heavyshift - Last Picture Show
TTITLE11=01. José Padilla - Walking On Air
TTITLE12=02. Nova Nova - Tones
EXTD=
EXTT0=
EXTT1=
EXTT2=
EXTT3=
EXTT4=
EXTT5=
EXTT6=
EXTT7=
EXTT8=
EXTT9=
EXTT10=
EXTT11=
EXTT12=
PLAYORDER=
